<?xml version="1.0" encoding="UTF-8"?><svg id="Layer_1" xmlns="http://www.w3.org/2000/svg" width="246.18" height="82" viewBox="0 0 246.18 82"><defs><style>.cls-1{fill:#fff;}.cls-2{fill:#ba1f31;}</style></defs><path id="Path_521" d="M35.1,11.48c-6.2-5.37-15.58-4.69-20.95,1.52-1.66,1.92-2.8,4.23-3.31,6.72h29.03c-.66-3.2-2.35-6.09-4.81-8.23"/><path id="Path_522" d="M22.93,22.64H11.38c-.51,.07-.9,.49-.93,1.01v23.53c0,.54,.3,1.03,.78,1.28,.09,.04,.14,.13,.13,.22v6.04l1.83-1.71h9.75v-4.34c0-.09,.05-.18,.13-.22,.48-.24,.78-.74,.78-1.27V23.71c0-.54-.4-.99-.93-1.07"/><path id="Path_523" d="M39.37,22.64h-11.55c-.51,.08-.89,.5-.91,1.01v23.53c0,.54,.3,1.03,.78,1.28,.08,.04,.13,.13,.13,.22v6.04l1.82-1.71h9.76v-4.34c0-.09,.05-.17,.13-.22,.48-.24,.78-.74,.78-1.27V23.71c0-.54-.39-.99-.93-1.07"/><path id="Path_524" class="cls-2" d="M7.76,69.28c5.34,3.54,11.38,5.92,17.7,6.97,6.33-1.05,12.36-3.42,17.71-6.97,3.55-2.49,7.77-6.63,7.77-12.18v-1.35h-6.69v4.8c0,.13-.11,.24-.25,.24h-4.36c-.13,0-.24-.11-.25-.24h0v-4.8h-11.59v4.8c0,.13-.11,.24-.24,.24h-4.38c-.13,0-.24-.11-.25-.24h0v-4.8H11.36v4.8c0,.13-.11,.24-.24,.24H6.75c-.12-.02-.21-.12-.21-.24v-4.8H0v1.35c0,5.55,4.22,9.69,7.76,12.18"/><path id="Path_525" d="M6.53,48.67c0-.09,.05-.18,.13-.22,.48-.25,.77-.74,.77-1.28V23.71c0-.53-.38-.99-.9-1.07-.12-.01-.21-.12-.2-.24v-2.46c0-.12,.09-.22,.2-.24h1.78c1.67-9.43,10.67-15.72,20.1-14.06,7.17,1.27,12.79,6.88,14.06,14.06h1.78c.13,0,.24,.11,.24,.24h0v2.45c0,.12-.09,.23-.21,.24-.51,.07-.9,.49-.93,1.01v23.54c0,.54,.3,1.03,.78,1.28,.08,.04,.13,.13,.13,.22v6.04l1.82-1.71h4.85V0H0V53.02H6.53v-4.35"/><path id="Path_526" class="cls-1" d="M17.71,69.4v-4.69l-2.48,.17v.32h.06c.29-.04,.58,.03,.81,.2,.12,.15,.18,.35,.15,.54v3.41c0,.32-.31,.4-1,.42v.33h3.42v-.33c-.67,0-1-.1-1-.42"/><path id="Path_527" class="cls-1" d="M20.56,66.71c.16-.65,.33-.85,1.11-.85h2.02l-2.91,4.03v.3h1.13l1.15-2.2,1.53-2.71v-.55h-4.27l-.05,2.02h.32"/><path id="Path_528" class="cls-1" d="M28.88,67.07h.07c.72-.27,1.08-.66,1.08-1.16s-.62-1.3-2.01-1.3-2.12,.66-2.12,1.71c.03,.58,.38,1.09,.9,1.33h0c-.7,.28-1.07,.69-1.07,1.24,0,.85,.85,1.39,2.3,1.39,1.06,.13,2.02-.62,2.16-1.68,0,0,0-.02,0-.03,0-.64-.41-1.14-1.25-1.49h-.07m-1.01-2.12c.51-.04,.96,.34,1.01,.85v.08c0,.38-.15,.74-.41,1.01h0c-.72-.26-1.41-.58-1.41-1.21,.02-.42,.37-.74,.79-.73,0,0,0,0,0,0h.02Zm.13,4.99c-.63,0-1.15-.5-1.15-1.13,0,0,0,0,0,0h0c0-.35,.13-.69,.38-.94h0l.29,.09c1.01,.34,1.4,.64,1.4,1.13,0,.47-.38,.85-.85,.85h-.07Z"/><path id="Path_529" class="cls-1" d="M34.06,66.88c-.44-.01-.89,.08-1.29,.26h0v-.05l.06-1.28h3.03l.09-1.1h-3.65l-.11,2.75,.27,.21c.36-.22,.77-.34,1.19-.33,.61-.03,1.12,.44,1.15,1.05,0,.07,0,.14,0,.21,0,.79-.38,1.35-1.14,1.35-.27,0-.53-.07-.77-.19h0c.24-.13,.4-.38,.41-.66,.03-.37-.25-.7-.62-.73,0,0,0,0,0,0h-.08c-.4-.02-.74,.28-.77,.67,0,.02,0,.05,0,.07,0,.79,.8,1.25,2.15,1.25,1.03,.15,1.99-.56,2.14-1.59,0,0,0-.01,0-.02,0-.06,0-.11,0-.17,0-1.19-1.07-1.62-2.08-1.62"/><path id="Path_530" d="M49.45,70.68h-.62v-.41h1.71v.41h-.61v1.65h-.48v-1.65m1.52-.41h.49l.55,.85,.54-.85h.49v2.06h-.44v-1.45l-.57,.9h0l-.57-.9v1.4h-.44l-.03-2Z"/><path id="Path_531" class="cls-2" d="M135.29,28.84h0c-9.81,0-14.94,6.96-14.94,13.82,0,7.89,6.2,13.82,14.43,13.82s14.67-5.98,14.67-14.15c0-7.69-6.05-13.5-14.1-13.5m7.41,14.66c0,6.57-2.83,10.82-7.22,10.82-4.95,0-8.54-5.18-8.54-12.32,0-6.43,3.08-10.92,7.5-10.92h0c5.01-.05,8.25,4.84,8.25,12.42h0Z"/><path id="Path_532" class="cls-2" d="M92.5,44.92v10.08l-1,.23c-2.76,.73-5.59,1.15-8.44,1.26-9.83,0-16.16-5.32-16.16-13.58,0-9.67,8.38-14.1,16.1-14.1,2.91,.15,5.79,.62,8.6,1.4v6.33s-2.43-5.51-8.4-5.51c-4.14,.1-7.76,2.83-9.01,6.78-.46,1.42-.7,2.91-.7,4.41,0,8.36,5.03,12.09,9.94,12.09,.79,.02,1.58-.14,2.31-.47,.62-.48,.94-1.24,.85-2.02v-5.98c.14-1.84-.84-3.59-2.48-4.45h10.18s-1.79,.44-1.79,3.52"/><path id="Path_533" class="cls-2" d="M202.23,44.92v10.08l-1.01,.23c-2.75,.72-5.56,1.14-8.4,1.26-9.83,0-16.17-5.32-16.17-13.58,0-9.67,8.38-14.1,16.11-14.1,2.91,.15,5.79,.62,8.6,1.4v6.33s-2.44-5.51-8.41-5.51c-4.14,.1-7.75,2.83-8.99,6.78-.46,1.42-.7,2.91-.71,4.41,0,8.36,5.04,12.09,9.94,12.09,.79,.02,1.58-.14,2.31-.47,.61-.48,.94-1.24,.85-2.02v-5.98c.14-1.85-.84-3.6-2.49-4.45h10.15s-1.79,.44-1.79,3.52"/><path id="Path_534" class="cls-2" d="M109.38,53.56c-1.13,.1-2.27-.02-3.36-.36-.72-.31-.85-1.24-.85-3.08v-6.51h3.27c2.94,0,4.94,.16,5.54,1.6v-5.75c-.56,1.43-2.48,1.71-5.54,1.71h-3.23v-8.33q0-1.15,1.45-1.15h3.91c2.41,0,3.59,.4,4.58,1.61,.68,.93,1.22,1.94,1.61,3.02v-6.92h-19.75c.62,.41,2.24,1.9,2.24,5.98v14.37c0,5.04-2.49,6.12-2.49,6.12h20.5v-7.39c-.68,1.32-1.5,2.56-2.44,3.7-1.35,1.52-4.89,1.42-5.41,1.42"/><path id="Path_535" class="cls-2" d="M166.18,37.07c.12,1.74-.58,3.43-1.89,4.59h0c-1.16,.79-2.57,1.15-3.97,1.01h-.75v-9.49c0-.75,.09-1.12,.27-1.29,.54-.31,1.16-.44,1.78-.38,2.22,0,4.59,1.47,4.59,5.58m5.23,12.86c-1.16-1.91-2.94-4.78-3.82-6.4,2.78-.93,4.68-3.51,4.75-6.44h0v-.58c.06-2.2-1-4.27-2.81-5.52-1.71-1.13-3.71-1.55-7.56-1.55h-10.47c.62,.42,2.25,1.9,2.25,5.98v14.31c0,5.04-2.48,6.12-2.48,6.12h10.69s-2.49-1-2.49-6.12v-5.03h.56c1.09-.07,2.11,.54,2.56,1.54,.41,.72,.79,1.44,1.18,2.14,.75,1.38,1.71,3.21,2.42,4.27,1.67,2.56,3.25,3.63,8.35,3.47,.51,0,1.02-.03,1.53-.09,0,0-1.71-1.25-4.68-6.14v.03Z"/><path id="Path_536" class="cls-2" d="M217.44,55.86s-2.48-1.01-2.48-6.12v-14.3c0-4.09,1.62-5.57,2.24-5.98h-10.25c.62,.42,2.24,1.9,2.24,5.98v14.3c0,5.04-2.48,6.12-2.48,6.12h10.7"/><path id="Path_537" class="cls-2" d="M246.18,55.86c-2.27-1.4-2.89-2.73-4.18-6.13-2.19-5.67-5.23-13.74-7.62-20.13l-.06-.15h-2.81l-8.41,20.42c-.93,2.28-2.56,5.04-4.47,6.05h7.41c-1.58-.66-1.23-2.74-.57-4.37,.12-.34,.63-1.61,1.31-3.25h8.33l1.26,3.48c.63,1.42,.29,3.08-.85,4.14h10.66m-18.35-10.25c1.61-3.87,3.42-8.18,3.42-8.18l2.97,8.18h-6.39Z"/><path id="Path_538" d="M71.25,18.66v-5.81c0-.54-.17-.69-1.45-.73v-.78h5.98v.78c-.85,.04-1.35,.17-1.35,.73v5.93c0,2.01,.91,2.87,2.78,2.87,.65,.03,1.29-.2,1.77-.64,.61-.7,.9-1.63,.79-2.56v-3.75c0-1.66-.36-2.44-2.02-2.56v-.77h4.69v.77c-1.55,.2-1.61,.95-1.61,2.56v4.02c0,2.63-1.44,4.27-4.53,4.27s-5.03-1.2-5.03-4.27"/><path id="Path_539" d="M88.54,14.6h-.1v4.72c0,1.66,.21,2.43,1.87,2.56v.78h-4.61v-.78c1.55-.17,1.71-.9,1.71-2.56v-5.58c0-.9-.33-1.61-1.71-1.63v-.78h4.1l5.98,7.41h.1v-4.03c0-1.66-.36-2.44-2.02-2.56v-.78h4.64v.78c-1.55,.19-1.61,.94-1.61,2.56v8.05h-1.71l-6.55-8.14"/><path id="Path_540" d="M101.83,21.87c1.28-.05,1.49-.2,1.49-.73V12.85c0-.54-.21-.69-1.49-.73v-.78h6.12v.78c-1.29,.04-1.49,.2-1.49,.73v8.27c0,.53,.21,.68,1.49,.73v.78h-6.12v-.78"/><path id="Path_541" d="M112.8,13.23c-.28-.72-.6-.9-1.71-1.11v-.78h6.43v.78c-1.51,.09-1.71,.4-1.51,1.01l2.45,6.97h.17l2.02-5.87c.52-1.49,.52-1.85-1.11-2.09v-.78h4.38v.78c-1.18,.24-1.34,.66-1.9,2.08l-3.26,8.54h-2.47l-3.57-9.51"/><path id="Path_542" d="M126.65,21.87c1.29-.05,1.45-.2,1.45-.73V12.85c0-.54-.17-.69-1.45-.73v-.78h10.13l.16,4.02h-.93c-.67-1.94-1.34-3.26-3.46-3.26h-1.3v4.36h.25c1.1,0,1.49-.15,2.09-1.71h.8v4.27h-.77c-.61-1.54-1.01-1.71-2.1-1.71h-.26v4.45h1.12c2.51,0,3.22-1.36,4.02-3.55h.94l-.17,4.36h-10.53v-.78"/><path id="Path_543" d="M146.17,21.13c0,.56,.49,.68,1.35,.73v.78h-5.98v-.78c1.27-.05,1.45-.2,1.45-.73V12.85c0-.54-.17-.69-1.45-.73v-.78h6.18c3.48,0,4.5,1.31,4.5,2.75s-.78,2.43-3.42,2.83v.05c2.43,0,3.11,1.01,3.24,2.26l.15,1.24c.12,1.15,.29,1.32,1.53,1.39v.78c-.67,.05-1.25,.07-1.78,.07-2.56,0-2.91-.66-3.01-2.02l-.1-1.31c-.07-1.66-.44-2.02-2.23-2.02h-.43v3.75m.69-4.53c1.78,0,2.15-.56,2.15-2.29,0-1.41-.48-2.14-2.27-2.14h-.57v4.43h.69Z"/><path id="Path_544" d="M157.44,18.9h.94c.85,1.9,2.08,3.17,3.53,3.17,.89,.11,1.71-.52,1.82-1.41,.01-.08,.01-.16,.01-.24,0-1.09-.62-1.55-2.49-2.09s-3.72-1.43-3.72-3.54c0-2.04,1.65-3.7,3.7-3.7,.11,0,.22,0,.33,.01,.83,0,1.64,.19,2.38,.56l.47-.61h.85v3.58h-.94c-.85-1.63-1.8-2.65-3.02-2.65-.81-.05-1.5,.57-1.55,1.37,0,.04,0,.09,0,.13,0,1.1,.67,1.45,2.66,2.02,1.6,.49,3.42,1.29,3.42,3.42,.11,2.12-1.52,3.94-3.64,4.05-.21,.01-.42,0-.63-.02-.96,.03-1.91-.16-2.78-.56l-.48,.61h-.85v-4.1"/><path id="Path_545" d="M169.59,21.87c1.29-.05,1.49-.2,1.49-.73V12.85c0-.54-.21-.69-1.49-.73v-.78h6.11v.78c-1.28,.04-1.49,.2-1.49,.73v8.27c0,.53,.2,.68,1.49,.73v.78h-6.13v-.78"/><path id="Path_546" d="M182.04,21.87c1.44,0,1.71-.2,1.71-.73V12.18h-.16c-1.26,0-2.02,1.21-2.88,3.26h-.9l.09-4.03h10.81l.09,4.03h-.9c-.85-2.12-1.61-3.26-2.88-3.26h-.15v8.96c0,.54,.28,.71,1.71,.73v.78h-6.57v-.78"/><path id="Path_547" d="M202.95,14.05c.79-1.31,.7-1.78-.67-1.94v-.78h4.22v.78c-1.01,.15-1.38,.6-2.13,1.77l-2.36,3.7v3.55c0,.54,.21,.68,1.49,.73v.78h-6.12v-.78c1.29-.05,1.49-.2,1.49-.73v-3.2l-2.89-4.8c-.33-.65-1.02-1.05-1.75-1.01v-.77h6.24v.77c-1.47,.08-1.45,.38-1.08,1.07l1.95,3.53,1.61-2.65"/><path id="Path_548" d="M214.86,17.03c-.24-3.06,2.05-5.73,5.11-5.97,.25-.02,.49-.02,.74,0,3.02-.21,5.63,2.06,5.84,5.08,.02,.27,.02,.54,0,.81,.24,3.05-2.04,5.72-5.09,5.97-.25,.02-.5,.02-.75,0-3.02,.22-5.64-2.06-5.85-5.07-.02-.27-.02-.55,0-.82m8.33,0c0-3.67-.71-5.04-2.56-5.04s-2.41,1.39-2.41,5.04,.72,5.04,2.56,5.04,2.4-1.38,2.4-5.08v.04Z"/><path id="Path_549" d="M229.74,21.87c1.28-.05,1.45-.2,1.45-.73V12.85c0-.54-.17-.69-1.45-.73v-.78h10.13v4.03h-.93c-.73-2.01-1.54-3.26-3.65-3.26h-.96v4.51h.29c1.11,0,1.49-.13,2.07-1.55h.79v4.17h-.79c-.61-1.53-.96-1.71-2.07-1.71h-.29v3.65c0,.56,0,.73,1.56,.78v.73h-6.2v-.78"/><path id="Path_550" d="M70.47,72.93c-.12-3.22,2.4-5.92,5.62-6.04,.1,0,.2,0,.31,0,.99,0,1.97,.26,2.84,.73l.49-.73h.68v4.02h-.76c-.69-2.08-1.82-3.32-3.31-3.32-1.71,0-3.29,1.71-3.29,5.04s1.87,5.07,3.67,5.07c1.58-.08,2.97-1.08,3.54-2.56l.66,.32c-.74,2-2.65,3.32-4.78,3.3-2.95,.16-5.48-2.1-5.64-5.05-.01-.25,0-.5,.01-.75"/><path id="Path_551" d="M82.13,74.54c-.17-2.11,1.4-3.95,3.5-4.12,0,0,.02,0,.02,0,.16-.01,.33-.01,.49,0,2.05-.17,3.86,1.35,4.03,3.41,0,0,0,0,0,0,.02,.21,.02,.42,0,.63,.18,2.12-1.4,3.99-3.52,4.17-.17,.01-.34,.01-.51,0-2.07,.16-3.87-1.4-4.03-3.47,0,0,0-.01,0-.02-.02-.21-.02-.42,0-.63m5.89,0c0-2.36-.66-3.42-1.92-3.42s-1.78,1.06-1.78,3.42,.66,3.47,1.93,3.47,1.77-1.1,1.77-3.48h0Z"/><path id="Path_552" d="M91.25,77.85c1.01,0,1.19-.2,1.19-.61v-9.11c0-.52-.26-.85-1.26-.85v-.65l3.31-.13v10.75c0,.41,.2,.58,1.19,.61v.61h-4.43v-.61"/><path id="Path_553" d="M96.49,77.85c1.01,0,1.19-.2,1.19-.61v-9.11c0-.52-.26-.85-1.26-.85v-.65l3.31-.13v10.75c0,.41,.2,.58,1.19,.61v.61h-4.43v-.61"/><path id="Path_554" d="M101.85,74.61c-.21-2.11,1.33-3.99,3.44-4.19,.16-.02,.33-.02,.5-.02,2.36,0,3.53,1.89,3.42,4.03h-5.19v.1c0,1.83,.85,3.1,2.43,3.1,.96-.07,1.82-.59,2.34-1.4l.43,.36c-.67,1.26-1.99,2.04-3.42,2.02-2.01,.17-3.77-1.32-3.94-3.32,0,0,0-.01,0-.02-.03-.23-.03-.46,0-.69m2.17-.8l3.02-.05c.17-1.47-.31-2.69-1.4-2.69-.9,0-1.49,.94-1.61,2.78v-.04Z"/><path id="Path_555" d="M115.53,70.68c.4-.78,.9-1.45,1.8-1.45,.51-.05,.96,.33,1.01,.84,0,0,0,.01,0,.02v.06c.01,.43-.32,.78-.74,.8h-.04c-.42,0-.76-.34-.76-.76,0,0,0,0,0,0v-.09c-.39,.16-.7,.47-.85,.85,.83,.4,1.35,1.25,1.32,2.18,0,1.63-1.39,2.65-3.31,2.65-.31,0-.63-.04-.94-.09-.63,.24-1.01,.46-1.01,.78s.34,.61,1.85,.61h.78c2.3,0,3.35,.63,3.35,2.12s-1.57,2.79-4.32,2.79c-2.13,0-3.54-.79-3.54-1.81,0-.76,.68-1.4,2.01-1.59v-.09c-1.05-.32-1.39-.79-1.39-1.45s.48-1.13,1.43-1.57c-.97-.35-1.6-1.28-1.57-2.31,0-1.64,1.4-2.67,3.35-2.67,.52,0,1.04,.09,1.54,.26m1.08,9.13c0-.65-.44-1.01-2.49-1.01h-1.37c-.72,.2-1.15,.55-1.15,1.15,0,.75,.85,1.37,2.62,1.37,1.49,0,2.45-.56,2.45-1.45l-.07-.06Zm-1.29-6.75c0-1.26-.51-2.02-1.4-2.02s-1.25,.56-1.25,2.02,.53,2.02,1.4,2.02,1.25-.56,1.25-2.02Z"/><path id="Path_556" d="M119.04,74.61c-.21-2.11,1.33-3.99,3.44-4.19,.16-.02,.33-.02,.5-.02,2.36,0,3.52,1.89,3.42,4.03h-5.18v.1c0,1.83,.85,3.1,2.43,3.1,.96-.07,1.83-.59,2.35-1.4l.44,.36c-.67,1.26-1.99,2.04-3.42,2.02-2.01,.17-3.77-1.32-3.94-3.32,0,0,0-.01,0-.02-.02-.23-.02-.46,0-.69m2.19-.8l3.02-.05c.17-1.47-.31-2.69-1.4-2.69-.91,0-1.51,.94-1.62,2.78v-.04Z"/><path id="Path_557" d="M130.98,74.54c-.17-2.11,1.41-3.96,3.52-4.12,0,0,0,0,0,0,.17-.01,.34-.01,.5,0,2.06-.17,3.86,1.36,4.03,3.42,.02,.21,.02,.42,0,.63,.18,2.12-1.4,3.99-3.52,4.17-.17,.01-.34,.01-.51,0-2.07,.16-3.87-1.4-4.03-3.47,0,0,0-.01,0-.02-.02-.21-.02-.42,0-.63m5.89,0c0-2.36-.66-3.42-1.91-3.42s-1.78,1.06-1.78,3.42,.66,3.47,1.94,3.47,1.76-1.1,1.76-3.48h0Z"/><path id="Path_558" d="M140.24,77.85c1.01,0,1.19-.2,1.19-.61v-5.68h-1.47v-.69l1.47-.32v-.37c-.09-1.06,.26-2.12,.95-2.93,.65-.6,1.52-.91,2.4-.85,1.59,0,2.35,.71,2.35,1.49,.05,.55-.35,1.04-.9,1.1-.05,0-.1,0-.15,0-.6,.02-1.1-.44-1.13-1.04,0,0,0,0,0,0,0-.06,0-.13,0-.19,0-.22,.04-.44,.1-.65-.14-.07-.28-.1-.44-.1-.25,0-.49,.09-.66,.27-.31,.31-.48,.9-.48,2.14v1.23h2.15v.85h-2.17v5.76c0,.42,.32,.55,1.66,.61v.61h-4.89v-.61"/><path id="Path_559" d="M149.83,77.8c1.35-.05,1.61-.2,1.61-.73v-8.48c0-.54-.26-.69-1.61-.73v-.66h5.12c3.52,0,4.71,1.42,4.71,3.18s-1.29,3.32-4.78,3.32h-1.1v3.34c0,.56,.2,.71,1.71,.76v.65h-5.69v-.66m4.98-4.79c1.9,0,2.4-.85,2.4-2.56,0-1.49-.55-2.49-2.35-2.49h-1.06v5.12l1.01-.07Z"/><path id="Path_560" d="M160.53,77.85c1.01,0,1.19-.2,1.19-.61v-9.11c0-.52-.24-.85-1.26-.85v-.65l3.3-.13v5.28c.84-.76,1.9-1.22,3.02-1.32,1.34,0,2.02,.85,2.02,2.47v4.27c0,.41,.2,.58,1.19,.61v.61h-4.21v-.61c.72,0,1.01-.2,1.01-.61v-3.75c0-1.18-.44-1.64-1.35-1.64-.59,.03-1.17,.22-1.66,.56v4.89c0,.41,.24,.58,1.01,.61v.61h-4.26v-.61"/><path id="Path_561" d="M170.92,76.64c0-.76,.41-1.46,1.08-1.83,1.19-.47,2.44-.81,3.7-1.01v-.78c0-1.47-.46-1.91-1.43-1.91-.33-.02-.65,.08-.91,.27,.14,.26,.22,.56,.22,.85,0,.6-.47,1.09-1.07,1.1,0,0-.01,0-.02,0h-.13c-.54,.07-1.03-.31-1.11-.85,0-.07,0-.14,0-.21,0-1.01,1.35-1.8,3.47-1.8s2.96,.93,2.96,2.76v3.51c0,.85,.19,1.01,1.21,.85l.15,.49c-.54,.34-1.16,.52-1.8,.53-1.01,0-1.26-.4-1.47-1.21h-.1c-.65,.75-1.57,1.2-2.56,1.25-1.11,.11-2.1-.69-2.21-1.8h0c0-.08,0-.17,0-.25m4.82,.13v-2.28c-2.02,.32-2.56,.71-2.56,1.71-.08,.63,.36,1.2,.99,1.28,0,0,0,0,0,0h.18c.54-.03,1.04-.3,1.37-.73l.02,.02Z"/><path id="Path_562" d="M179.52,77.85c1.01,0,1.2-.2,1.2-.61v-5.12c0-.51-.22-.85-1.2-.85v-.59l3.21-.15v1.39c.52-.8,1.37-1.33,2.31-1.43,.73-.08,1.38,.45,1.45,1.18,0,0,0,0,0,.01,0,.06,0,.12,0,.18,.05,.63-.41,1.19-1.04,1.25h-.07c-.55,.09-1.07-.28-1.16-.83,0,0,0-.02,0-.02,0-.06,0-.12,0-.18,0-.11,0-.22,0-.32-.6,.04-1.15,.35-1.5,.84v4.69c0,.41,.29,.56,1.51,.6v.62h-4.71v-.61"/><path id="Path_563" d="M192.4,77.84c.74,0,.85-.2,.85-.61v-3.81c0-1.18-.44-1.64-1.35-1.64-.55,.03-1.08,.22-1.51,.56v4.88c0,.41,.15,.58,.85,.61v.61h-4.07v-.61c1.01,0,1.2-.2,1.2-.61v-5.12c0-.52-.22-.85-1.2-.85v-.61l3.24-.13v1.26c.79-.76,1.81-1.22,2.9-1.32,.93-.06,1.76,.6,1.91,1.52,.79-.86,1.86-1.4,3.02-1.52,1.35,0,2.02,.85,2.02,2.47v4.27c0,.41,.2,.58,1.19,.61v.61h-4.21v-.61c.73,0,.85-.2,.85-.61v-3.76c0-1.18-.37-1.64-1.29-1.64-.59,.08-1.15,.32-1.61,.72v4.72c0,.41,.17,.58,1,.61v.61h-3.86v-.6"/><path id="Path_564" d="M202.37,76.64c0-.76,.41-1.46,1.08-1.83,1.19-.47,2.43-.81,3.69-1.01v-.78c0-1.47-.46-1.91-1.43-1.91-.32-.02-.64,.08-.9,.27,.13,.27,.21,.56,.22,.85,.02,.6-.45,1.1-1.05,1.12,0,0,0,0,0,0h-.12c-.54,.06-1.03-.32-1.11-.85,0-.06,0-.13,0-.2,0-1.01,1.35-1.8,3.42-1.8s2.96,.93,2.96,2.76v3.51c0,.85,.2,1.01,1.22,.85l.15,.49c-.55,.34-1.17,.52-1.81,.53-1,0-1.26-.4-1.47-1.21h-.07c-.65,.75-1.57,1.2-2.56,1.25-1.11,.11-2.09-.71-2.2-1.82,0,0,0-.01,0-.02,0-.08,0-.16,0-.25m4.77,0v-2.14c-2.02,.32-2.56,.71-2.56,1.71-.08,.63,.36,1.2,.99,1.28,0,0,0,0,0,0h.18c.57-.02,1.09-.31,1.42-.78l-.03-.07Z"/><path id="Path_565" d="M210.91,74.61c-.13-2.19,1.54-4.06,3.72-4.2h.31c2.15,0,3.02,1.1,3.02,2.02,.04,.6-.41,1.12-1.01,1.17-.55,.09-1.07-.29-1.15-.84,0,0,0,0,0-.01,0-.06,0-.11,0-.17,0-.4,.19-.77,.51-1.01-.28-.36-.72-.56-1.18-.54-1.18,0-2.02,1.06-2.02,3.29,0,1.9,.85,3.2,2.5,3.2,.87-.04,1.68-.47,2.19-1.18l.44,.36c-.68,1.21-1.97,1.94-3.36,1.91-2.05,.12-3.81-1.44-3.93-3.49,0,0,0,0,0,0v-.53"/><path id="Path_566" d="M220,72.21c-.17-.61-.72-1.03-1.35-1.05v-.61h4.36v.61c-1,.09-1.16,.36-1,.85l1.76,4.27,1.47-3.51c.44-1.01,.27-1.42-.85-1.59v-.61h3.31v.61c-.54,.07-1.01,.4-1.37,1.26l-2.95,6.78c-.93,2.15-1.82,2.77-2.83,2.77s-1.61-.58-1.61-1.34c-.02-.63,.47-1.15,1.09-1.18,0,0,0,0,0,0h0c.59-.04,1.1,.41,1.13,1,0,.01,0,.02,0,.04v.06c0,.13-.03,.27-.07,.4,.48-.07,.85-.56,1.63-2.37l.07-.17-2.76-6.21"/><path id="Path_567" class="cls-2" d="M135.29,28.84h0c-9.81,0-14.94,6.96-14.94,13.82,0,7.89,6.2,13.82,14.43,13.82s14.67-5.98,14.67-14.15c0-7.69-6.05-13.5-14.1-13.5m7.41,14.66c0,6.57-2.83,10.82-7.22,10.82-4.95,0-8.54-5.18-8.54-12.32,0-6.43,3.08-10.92,7.5-10.92h0c5.01-.05,8.25,4.84,8.25,12.42h0Z"/><path id="Path_568" class="cls-2" d="M92.5,44.92v10.08l-1,.23c-2.76,.73-5.59,1.15-8.44,1.26-9.83,0-16.16-5.32-16.16-13.58,0-9.67,8.38-14.1,16.1-14.1,2.91,.15,5.79,.62,8.6,1.4v6.33s-2.43-5.51-8.4-5.51c-4.14,.1-7.76,2.83-9.01,6.78-.46,1.42-.7,2.91-.7,4.41,0,8.36,5.03,12.09,9.94,12.09,.79,.02,1.58-.14,2.31-.47,.62-.48,.94-1.24,.85-2.02v-5.98c.14-1.84-.84-3.59-2.48-4.45h10.18s-1.79,.44-1.79,3.52"/><path id="Path_569" class="cls-2" d="M202.23,44.92v10.08l-1.01,.23c-2.75,.72-5.56,1.14-8.4,1.26-9.83,0-16.17-5.32-16.17-13.58,0-9.67,8.38-14.1,16.11-14.1,2.91,.15,5.79,.62,8.6,1.4v6.33s-2.44-5.51-8.41-5.51c-4.14,.1-7.75,2.83-8.99,6.78-.46,1.42-.7,2.91-.71,4.41,0,8.36,5.04,12.09,9.94,12.09,.79,.02,1.58-.14,2.31-.47,.61-.48,.94-1.24,.85-2.02v-5.98c.14-1.85-.84-3.6-2.49-4.45h10.15s-1.79,.44-1.79,3.52"/><path id="Path_570" class="cls-2" d="M109.38,53.56c-1.13,.1-2.27-.02-3.36-.36-.72-.31-.85-1.24-.85-3.08v-6.51h3.27c2.94,0,4.94,.16,5.54,1.6v-5.75c-.56,1.43-2.48,1.71-5.54,1.71h-3.23v-8.33q0-1.15,1.45-1.15h3.91c2.41,0,3.59,.4,4.58,1.61,.68,.93,1.22,1.94,1.61,3.02v-6.92h-19.75c.62,.41,2.24,1.9,2.24,5.98v14.37c0,5.04-2.49,6.12-2.49,6.12h20.5v-7.39c-.68,1.32-1.5,2.56-2.44,3.7-1.35,1.52-4.89,1.42-5.41,1.42"/><path id="Path_571" class="cls-2" d="M166.18,37.07c.12,1.74-.58,3.43-1.89,4.59h0c-1.16,.79-2.57,1.15-3.97,1.01h-.75v-9.49c0-.75,.09-1.12,.27-1.29,.54-.31,1.16-.44,1.78-.38,2.22,0,4.59,1.47,4.59,5.58m5.23,12.86c-1.16-1.91-2.94-4.78-3.82-6.4,2.78-.93,4.68-3.51,4.75-6.44h0v-.58c.06-2.2-1-4.27-2.81-5.52-1.71-1.13-3.71-1.55-7.56-1.55h-10.47c.62,.42,2.25,1.9,2.25,5.98v14.31c0,5.04-2.48,6.12-2.48,6.12h10.69s-2.49-1-2.49-6.12v-5.03h.56c1.09-.07,2.11,.54,2.56,1.54,.41,.72,.79,1.44,1.18,2.14,.75,1.38,1.71,3.21,2.42,4.27,1.67,2.56,3.25,3.63,8.35,3.47,.51,0,1.02-.03,1.53-.09,0,0-1.71-1.25-4.68-6.14v.03Z"/><path id="Path_572" class="cls-2" d="M217.44,55.86s-2.48-1.01-2.48-6.12v-14.3c0-4.09,1.62-5.57,2.24-5.98h-10.25c.62,.42,2.24,1.9,2.24,5.98v14.3c0,5.04-2.48,6.12-2.48,6.12h10.7"/><path id="Path_573" class="cls-2" d="M246.18,55.86c-2.27-1.4-2.89-2.73-4.18-6.13-2.19-5.67-5.23-13.74-7.62-20.13l-.06-.15h-2.81l-8.41,20.42c-.93,2.28-2.56,5.04-4.47,6.05h7.41c-1.58-.66-1.23-2.74-.57-4.37,.12-.34,.63-1.61,1.31-3.25h8.33l1.26,3.48c.63,1.42,.29,3.08-.85,4.14h10.66m-18.35-10.25c1.61-3.87,3.42-8.18,3.42-8.18l2.97,8.18h-6.39Z"/><path id="Path_574" d="M71.25,18.66v-5.81c0-.54-.17-.69-1.45-.73v-.78h5.98v.78c-.85,.04-1.35,.17-1.35,.73v5.93c0,2.01,.91,2.87,2.78,2.87,.65,.03,1.29-.2,1.77-.64,.61-.7,.9-1.63,.79-2.56v-3.75c0-1.66-.36-2.44-2.02-2.56v-.77h4.69v.77c-1.55,.2-1.61,.95-1.61,2.56v4.02c0,2.63-1.44,4.27-4.53,4.27s-5.03-1.2-5.03-4.27"/><path id="Path_575" d="M88.54,14.6h-.1v4.72c0,1.66,.21,2.43,1.87,2.56v.78h-4.61v-.78c1.55-.17,1.71-.9,1.71-2.56v-5.58c0-.9-.33-1.61-1.71-1.63v-.78h4.1l5.98,7.41h.1v-4.03c0-1.66-.36-2.44-2.02-2.56v-.78h4.64v.78c-1.55,.19-1.61,.94-1.61,2.56v8.05h-1.71l-6.55-8.14"/><path id="Path_576" d="M101.83,21.87c1.28-.05,1.49-.2,1.49-.73V12.85c0-.54-.21-.69-1.49-.73v-.78h6.12v.78c-1.29,.04-1.49,.2-1.49,.73v8.27c0,.53,.21,.68,1.49,.73v.78h-6.12v-.78"/><path id="Path_577" d="M112.8,13.23c-.28-.72-.6-.9-1.71-1.11v-.78h6.43v.78c-1.51,.09-1.71,.4-1.51,1.01l2.45,6.97h.17l2.02-5.87c.52-1.49,.52-1.85-1.11-2.09v-.78h4.38v.78c-1.18,.24-1.34,.66-1.9,2.08l-3.26,8.54h-2.47l-3.57-9.51"/><path id="Path_578" d="M126.65,21.87c1.29-.05,1.45-.2,1.45-.73V12.85c0-.54-.17-.69-1.45-.73v-.78h10.13l.16,4.02h-.93c-.67-1.94-1.34-3.26-3.46-3.26h-1.3v4.36h.25c1.1,0,1.49-.15,2.09-1.71h.8v4.27h-.77c-.61-1.54-1.01-1.71-2.1-1.71h-.26v4.45h1.12c2.51,0,3.22-1.36,4.02-3.55h.94l-.17,4.36h-10.53v-.78"/><path id="Path_579" d="M146.17,21.13c0,.56,.49,.68,1.35,.73v.78h-5.98v-.78c1.27-.05,1.45-.2,1.45-.73V12.85c0-.54-.17-.69-1.45-.73v-.78h6.18c3.48,0,4.5,1.31,4.5,2.75s-.78,2.43-3.42,2.83v.05c2.43,0,3.11,1.01,3.24,2.26l.15,1.24c.12,1.15,.29,1.32,1.53,1.39v.78c-.67,.05-1.25,.07-1.78,.07-2.56,0-2.91-.66-3.01-2.02l-.1-1.31c-.07-1.66-.44-2.02-2.23-2.02h-.43v3.75m.69-4.53c1.78,0,2.15-.56,2.15-2.29,0-1.41-.48-2.14-2.27-2.14h-.57v4.43h.69Z"/><path id="Path_580" d="M157.44,18.9h.94c.85,1.9,2.08,3.17,3.53,3.17,.89,.11,1.71-.52,1.82-1.41,.01-.08,.01-.16,.01-.24,0-1.09-.62-1.55-2.49-2.09s-3.72-1.43-3.72-3.54c0-2.04,1.65-3.7,3.7-3.7,.11,0,.22,0,.33,.01,.83,0,1.64,.19,2.38,.56l.47-.61h.85v3.58h-.94c-.85-1.63-1.8-2.65-3.02-2.65-.81-.05-1.5,.57-1.55,1.37,0,.04,0,.09,0,.13,0,1.1,.67,1.45,2.66,2.02,1.6,.49,3.42,1.29,3.42,3.42,.11,2.12-1.52,3.94-3.64,4.05-.21,.01-.42,0-.63-.02-.96,.03-1.91-.16-2.78-.56l-.48,.61h-.85v-4.1"/><path id="Path_581" d="M169.59,21.87c1.29-.05,1.49-.2,1.49-.73V12.85c0-.54-.21-.69-1.49-.73v-.78h6.11v.78c-1.28,.04-1.49,.2-1.49,.73v8.27c0,.53,.2,.68,1.49,.73v.78h-6.13v-.78"/><path id="Path_582" d="M182.04,21.87c1.44,0,1.71-.2,1.71-.73V12.18h-.16c-1.26,0-2.02,1.21-2.88,3.26h-.9l.09-4.03h10.81l.09,4.03h-.9c-.85-2.12-1.61-3.26-2.88-3.26h-.15v8.96c0,.54,.28,.71,1.71,.73v.78h-6.57v-.78"/><path id="Path_583" d="M202.95,14.05c.79-1.31,.7-1.78-.67-1.94v-.78h4.22v.78c-1.01,.15-1.38,.6-2.13,1.77l-2.36,3.7v3.55c0,.54,.21,.68,1.49,.73v.78h-6.12v-.78c1.29-.05,1.49-.2,1.49-.73v-3.2l-2.89-4.8c-.33-.65-1.02-1.05-1.75-1.01v-.77h6.24v.77c-1.47,.08-1.45,.38-1.08,1.07l1.95,3.53,1.61-2.65"/><path id="Path_584" d="M214.86,17.03c-.24-3.06,2.05-5.73,5.11-5.97,.25-.02,.49-.02,.74,0,3.02-.21,5.63,2.06,5.84,5.08,.02,.27,.02,.54,0,.81,.24,3.05-2.04,5.72-5.09,5.97-.25,.02-.5,.02-.75,0-3.02,.22-5.64-2.06-5.85-5.07-.02-.27-.02-.55,0-.82m8.33,0c0-3.67-.71-5.04-2.56-5.04s-2.41,1.39-2.41,5.04,.72,5.04,2.56,5.04,2.4-1.38,2.4-5.08v.04Z"/><path id="Path_585" d="M229.74,21.87c1.28-.05,1.45-.2,1.45-.73V12.85c0-.54-.17-.69-1.45-.73v-.78h10.13v4.03h-.93c-.73-2.01-1.54-3.26-3.65-3.26h-.96v4.51h.29c1.11,0,1.49-.13,2.07-1.55h.79v4.17h-.79c-.61-1.53-.96-1.71-2.07-1.71h-.29v3.65c0,.56,0,.73,1.56,.78v.73h-6.2v-.78"/></svg>